<svg xmlns="http://www.w3.org/2000/svg" width="1486.564" height="30.261" viewBox="0 0 1486.564 30.261">
  <path id="Soustraction_2" data-name="Soustraction 2" d="M1504.909,30.262H18.345V16.593h.039A331.989,331.989,0,0,0,62.476,14c11.613-1.555,21.058-3.664,30.192-5.7h.006c9.133-2.039,18.576-4.148,30.193-5.7A332.226,332.226,0,0,1,167,0a332.2,332.2,0,0,1,44.131,2.593c11.617,1.556,21.061,3.664,30.195,5.7s18.575,4.148,30.2,5.7a332.255,332.255,0,0,0,44.133,2.593A332.21,332.21,0,0,0,359.784,14c11.611-1.555,21.055-3.663,30.187-5.7l.008,0h.006c9.129-2.039,18.569-4.147,30.188-5.7A332.19,332.19,0,0,1,464.3,0a332.19,332.19,0,0,1,44.131,2.593c11.6,1.553,21.025,3.657,30.142,5.691l.054.012c9.13,2.039,18.57,4.147,30.2,5.7a332.241,332.241,0,0,0,44.133,2.593A332.224,332.224,0,0,0,657.09,14c11.613-1.555,21.057-3.664,30.191-5.7l.03-.007c9.128-2.038,18.566-4.144,30.17-5.7a376.865,376.865,0,0,1,88.264,0c11.605,1.554,21.046,3.662,30.176,5.7l.019,0,.01,0h.007c9.131,2.038,18.574,4.145,30.18,5.7a332.235,332.235,0,0,0,44.133,2.593A332.25,332.25,0,0,0,954.4,14c11.612-1.555,21.057-3.663,30.191-5.7s18.574-4.148,30.2-5.705a376.872,376.872,0,0,1,88.265,0c11.615,1.555,21.06,3.664,30.194,5.7s18.582,4.149,30.2,5.7a332.26,332.26,0,0,0,44.133,2.593A332.263,332.263,0,0,0,1251.717,14c11.617-1.556,21.062-3.664,30.2-5.7l.035-.008c9.126-2.037,18.562-4.143,30.164-5.7a376.911,376.911,0,0,1,88.269,0c11.616,1.555,21.06,3.664,30.193,5.7s18.582,4.149,30.2,5.7a332.306,332.306,0,0,0,44.135,2.593V30.26h0Z" transform="translate(-18.345 0)" fill="#F7E5D4"/>
</svg>
